<?xml version="1.0" encoding="UTF-8" standalone="no"?>
<!-- Created with Inkscape (http://www.inkscape.org/) -->

<svg
   xmlns:dc="http://purl.org/dc/elements/1.1/"
   xmlns:cc="http://creativecommons.org/ns#"
   xmlns:rdf="http://www.w3.org/1999/02/22-rdf-syntax-ns#"
   xmlns:svg="http://www.w3.org/2000/svg"
   xmlns="http://www.w3.org/2000/svg"
   xmlns:xlink="http://www.w3.org/1999/xlink"
   xmlns:sodipodi="http://sodipodi.sourceforge.net/DTD/sodipodi-0.dtd"
   xmlns:inkscape="http://www.inkscape.org/namespaces/inkscape"
   width="48px"
   height="48px"
   id="svg3006"
   version="1.1"
   inkscape:version="0.48.4 r9939"
   sodipodi:docname="umassemslogo.svg">
  <defs
     id="defs3008" />
  <sodipodi:namedview
     id="base"
     pagecolor="#ffffff"
     bordercolor="#666666"
     borderopacity="1.0"
     inkscape:pageopacity="0.0"
     inkscape:pageshadow="2"
     inkscape:zoom="12.418563"
     inkscape:cx="31.765262"
     inkscape:cy="18.914937"
     inkscape:current-layer="svg3006"
     showgrid="false"
     inkscape:grid-bbox="true"
     inkscape:document-units="px"
     showguides="true"
     inkscape:guide-bbox="true"
     inkscape:window-width="1918"
     inkscape:window-height="1028"
     inkscape:window-x="0"
     inkscape:window-y="0"
     inkscape:window-maximized="0">
    <inkscape:grid
       type="xygrid"
       id="grid3028" />
  </sodipodi:namedview>
  <metadata
     id="metadata3011">
    <rdf:RDF>
      <cc:Work
         rdf:about="">
        <dc:format>image/svg+xml</dc:format>
        <dc:type
           rdf:resource="http://purl.org/dc/dcmitype/StillImage" />
        <dc:title />
      </cc:Work>
    </rdf:RDF>
  </metadata>
  <g
     id="layer1"
     inkscape:label="Outline"
     inkscape:groupmode="layer"
     style="display:inline">
    <path
       style="fill:none;stroke:#000000;stroke-width:0.2;stroke-linecap:butt;stroke-linejoin:miter;stroke-miterlimit:4;stroke-opacity:1;stroke-dasharray:none"
       d="M 5.1133954,4.745526 C 17.547329,1.7436939 30.122845,1.5968982 42.77466,4.7483946 41.968562,43.916188 24,46 24,46 24,46 5.8786153,43.907818 5.1133954,4.745526 z"
       id="path3034"
       inkscape:connector-curvature="0"
       sodipodi:nodetypes="cccc" />
    <path
       style="fill:#646464;fill-opacity:1;stroke:#000000;stroke-width:1;stroke-linecap:butt;stroke-linejoin:miter;stroke-miterlimit:4;stroke-opacity:1;stroke-dasharray:none;display:inline"
       d="M 5.0956014,4.7882306 C 17.529535,1.7863986 30.105051,1.6396026 42.756866,4.7911306 41.950768,43.958894 23.982206,46.042706 23.982206,46.042706 c 0,0 -18.1213846,-2.092182 -18.8866046,-41.2544754 z"
       id="path3034-1"
       inkscape:connector-curvature="0"
       sodipodi:nodetypes="cccc" />
    <path
       style="opacity:0;fill:#c6ce1c;fill-opacity:1;stroke-width:0.20019238;stroke-miterlimit:4;stroke-dasharray:0.20019238, 2.40230852;stroke-dashoffset:0"
       d="M 23.294422,45.735612 C 21.718789,45.299932 20.194102,44.5472 18.644756,43.440088 16.972798,42.245361 15.348658,40.622939 13.927975,38.728294 9.1896844,32.40924 6.3036008,22.712627 5.4722996,10.319065 5.3258775,8.136112 5.2121048,4.9470623 5.2784321,4.8849557 5.3885412,4.7818531 9.0602554,4.0187407 11.023959,3.6908316 21.287624,1.976953 31.580523,2.2888126 41.530647,4.6151393 c 0.587931,0.1374575 1.080339,0.2612962 1.09424,0.275197 0.03771,0.037708 -0.124826,3.9248201 -0.226994,5.4287287 -0.825005,12.143996 -3.598172,21.705927 -8.132994,28.042704 -1.074643,1.501663 -2.966875,3.528346 -4.244667,4.546268 -1.656658,1.319737 -3.528202,2.322142 -5.225264,2.798668 -0.720644,0.202354 -0.863337,0.205102 -1.500546,0.02891 l 0,0 z m 1.354179,-7.351171 c 1.016748,-0.335907 2.426945,-1.243872 3.255541,-2.096103 0.213532,-0.219623 0.288137,-0.261088 0.469751,-0.261088 0.212923,0 0.215902,-0.0031 0.215902,-0.221579 0,-0.221468 0.05029,-0.298707 0.66724,-1.024782 l 0.126315,-0.148657 0.0018,0.581424 0.0018,0.581424 0.28957,0.08599 c 0.514504,0.15279 0.978655,0.216201 1.589433,0.217139 1.234161,0.0019 2.080982,-0.404465 2.478731,-1.189467 0.148179,-0.292447 0.168872,-0.392971 0.168273,-0.817439 -5.7e-4,-0.396728 -0.02464,-0.52914 -0.133586,-0.734436 -0.226593,-0.427006 -0.634743,-0.76154 -1.363924,-1.117916 -0.36603,-0.178892 -0.786582,-0.40126 -0.934562,-0.494153 l -0.269052,-0.168896 0.122136,-0.236961 c 0.06718,-0.130329 0.244064,-0.518201 0.393087,-0.861936 0.149023,-0.343737 0.29782,-0.633932 0.330661,-0.644878 0.10699,-0.03566 0.678222,0.106812 0.743474,0.185437 0.03496,0.04212 0.08867,0.239291 0.119351,0.438152 0.113128,0.733194 0.07096,0.674733 0.48673,0.674733 l 0.367146,0 -0.0158,-0.811388 -0.0158,-0.811388 -0.483985,-0.122921 c -0.266193,-0.06761 -0.602312,-0.139131 -0.746932,-0.158945 l -0.262945,-0.03602 0.222644,-0.609738 c 1.09872,-3.008985 1.962964,-7.376506 2.351558,-11.883759 0.117636,-1.36445 0.247888,-3.750649 0.268626,-4.921221 l 0.01758,-0.992396 -0.284697,-0.07588 C 31.974741,9.9472213 29.800519,9.5586109 27.23784,9.3507567 22.724366,8.9846778 18.264694,9.3967 13.472358,10.622528 l -0.626335,0.160209 0.009,1.265428 c 0.02195,3.081097 0.395703,7.051336 0.962863,10.228195 0.397296,2.225392 1.014877,4.61496 1.637147,6.33452 l 0.252413,0.697509 -0.704741,0 -0.70474,0 0,0.256227 0,0.256228 0.301779,0 c 0.165979,0 0.332527,0.03075 0.370107,0.06833 0.05121,0.05121 0.06833,0.741195 0.06833,2.754595 0,3.026613 0.03449,2.811078 -0.457405,2.858343 l -0.282808,0.02717 0,0.25003 0,0.25003 2.711227,-0.0032 2.711228,-0.0032 0.43468,0.390425 c 1.171037,1.051813 2.326076,1.755655 3.395534,2.069124 0.379177,0.111141 0.496447,0.100668 1.097951,-0.09805 l 0,2e-6 z M 35.965432,10.171533 C 36.379658,10.094959 36.649338,9.9597901 36.882353,9.7119547 37.268832,9.3008953 37.377017,8.8456162 37.212502,8.3225785 37.106339,7.9850606 36.893874,7.7360078 36.033724,6.9408104 35.655627,6.5912637 35.520886,6.3643287 35.520886,6.0770718 c 0,-0.4281699 0.323942,-0.7402135 0.768439,-0.7402135 0.258697,0 0.681421,0.1478793 0.836966,0.2927915 0.115653,0.1077468 0.122254,0.1502744 0.08666,0.5582982 l -0.03853,0.4416672 0.269771,0.067929 c 0.148374,0.037361 0.274868,0.06037 0.281096,0.051131 0.0062,-0.00924 0.08109,-0.2818784 0.166353,-0.6058646 0.108043,-0.4105374 0.137413,-0.6102903 0.09691,-0.6590968 -0.108515,-0.1307521 -0.998344,-0.532042 -1.398758,-0.6308031 -0.977034,-0.2409836 -1.870811,0.1676828 -2.108396,0.9640335 -0.112623,0.3774943 -0.10585,0.5384906 0.03893,0.9254597 0.104028,0.2780407 0.228021,0.4322198 0.814519,1.0128122 0.541039,0.5355922 0.706653,0.7359669 0.759915,0.919414 0.08948,0.3081873 0.03349,0.5598525 -0.169793,0.76313 -0.289836,0.2898357 -0.806753,0.2936825 -1.366242,0.010167 l -0.303456,-0.1537731 2.28e-4,-0.2846975 c 1.14e-4,-0.1565836 0.01824,-0.4018477 0.04023,-0.5450306 l 0.03997,-0.2603334 -0.285585,-0.073193 c -0.157072,-0.040256 -0.294267,-0.064032 -0.304879,-0.052834 -0.03311,0.034938 -0.381618,1.368419 -0.362342,1.3864142 0.07064,0.065953 0.807201,0.4402579 1.015222,0.5159169 0.233933,0.085084 0.927443,0.235756 1.142047,0.248121 0.04905,0.0028 0.24041,-0.02282 0.42524,-0.05698 l 2.7e-5,0 z M 13.840599,9.9227413 C 14.713475,9.6092996 15.05774,9.1491066 15.056262,8.2977124 15.055556,7.8903624 14.995127,7.5753981 14.674631,6.3085848 14.465196,5.4807567 14.306727,4.7698597 14.322478,4.7288136 c 0.01575,-0.041046 0.131985,-0.1159805 0.258298,-0.166521 0.248391,-0.099386 0.256693,-0.1148914 0.17565,-0.3280504 l -0.05401,-0.142058 -0.834966,0.220684 c -0.459231,0.1213761 -0.846137,0.2318563 -0.859793,0.2455115 -0.01365,0.013655 -0.0073,0.094831 0.01422,0.1803897 0.0372,0.148225 0.05229,0.1542895 0.319856,0.1285797 0.240604,-0.023119 0.291534,-0.00978 0.355694,0.093149 0.134192,0.2152824 0.772666,2.941493 0.771997,3.2963381 -0.0011,0.6105452 -0.243238,0.9125819 -0.878458,1.0959954 -0.673553,0.194482 -1.147871,0.00894 -1.422423,-0.5564259 -0.164451,-0.3386431 -0.912077,-3.2017135 -0.866839,-3.319603 0.01617,-0.042147 0.133252,-0.1077433 0.260174,-0.1457702 0.174715,-0.052346 0.230557,-0.098069 0.229897,-0.1882409 -0.0022,-0.2944753 -0.03438,-0.2946245 -1.193637,-0.00553 C 9.5718158,5.39321 9.5078702,5.4168932 9.5381854,5.5298338 c 0.017744,0.066106 0.032611,0.1508088 0.033039,0.1882296 5.238e-4,0.046035 0.1058947,0.064449 0.3258161,0.05694 l 0.3250385,-0.011098 0.384876,1.5088968 c 0.211681,0.8298932 0.42809,1.6241993 0.480909,1.7651245 0.148342,0.3957916 0.398669,0.7228652 0.67897,0.8871323 0.45638,0.2674568 1.325199,0.2664858 2.073765,-0.00232 l 0,6e-7 z M 18.1023,8.9862898 c 0.0098,-0.00292 0.0098,-0.088577 0,-0.1903567 -0.01703,-0.1765996 -0.03058,-0.1863539 -0.29676,-0.2135232 -0.166631,-0.017008 -0.296824,-0.062853 -0.323399,-0.113879 -0.04469,-0.085815 -0.465628,-4.0471203 -0.433471,-4.0792783 0.0094,-0.00945 0.478152,0.9877975 1.041562,2.2161028 l 1.024382,2.2332823 0.232371,0.017167 c 0.143703,0.010616 0.262789,-0.013251 0.312086,-0.062548 0.04384,-0.043843 0.322437,-1.1467582 0.619099,-2.4509224 0.296661,-1.3041642 0.552519,-2.3713914 0.568574,-2.371616 0.05367,-7.504e-4 0.464555,4.1691917 0.415633,4.2181129 -0.02652,0.026518 -0.150262,0.069528 -0.274988,0.095579 -0.209229,0.043699 -0.225245,0.060364 -0.207003,0.2153862 0.01087,0.092412 0.02901,0.1776182 0.04031,0.1893466 0.02491,0.025871 2.126618,-0.195323 2.15529,-0.2268327 0.01113,-0.012237 0.0081,-0.1015391 -0.0066,-0.1984484 -0.02643,-0.1731975 -0.03152,-0.1757538 -0.29902,-0.1500504 -0.178606,0.017162 -0.286965,0.00216 -0.315279,-0.043658 -0.05003,-0.080946 -0.493246,-4.1289433 -0.470716,-4.2991326 0.01106,-0.083509 0.08341,-0.1302563 0.271304,-0.175289 0.230526,-0.05525 0.258017,-0.079524 0.27407,-0.2419929 0.02155,-0.2181281 0.100558,-0.2121823 -1.142398,-0.085974 l -0.953736,0.096841 3.41e-4,0.1462678 c 5.98e-4,0.2359069 -0.815624,3.8238808 -0.859121,3.7765564 -0.07939,-0.086406 -1.589619,-3.4151494 -1.589619,-3.5037894 0,-0.05022 -0.0216,-0.104657 -0.048,-0.1209716 -0.04395,-0.027162 -1.434376,0.098674 -1.877081,0.1698788 -0.17251,0.027747 -0.186935,0.045662 -0.170819,0.2121472 0.01726,0.1783149 0.02268,0.1815276 0.279477,0.1656578 0.162553,-0.010046 0.284026,0.01155 0.320282,0.05694 0.06728,0.084227 0.487955,3.9302167 0.460798,4.2127918 -0.01638,0.1704546 -0.04131,0.1933426 -0.27086,0.2486781 -0.269602,0.064991 -0.318178,0.1246611 -0.267114,0.3281184 l 0.03211,0.1279482 0.870244,-0.096618 c 0.478634,-0.05314 0.878272,-0.099005 0.888086,-0.1019223 l 0,0 z m 13.681069,0.040048 C 32.491556,8.6993511 32.831676,8.0079629 32.637472,7.2901371 32.549318,6.9642983 32.12073,6.509621 31.502795,6.0863889 30.913618,5.6828543 30.692068,5.4211388 30.654041,5.0837641 c -0.03763,-0.3338275 0.101007,-0.5813714 0.402164,-0.7181013 0.290471,-0.1318784 0.444258,-0.13633 0.823099,-0.023826 0.425289,0.1262972 0.468499,0.1894593 0.468499,0.6848367 0,0.4609994 -0.02437,0.4313355 0.408485,0.4972954 0.14597,0.022244 0.154691,0.00887 0.211183,-0.3239473 0.03241,-0.1909319 0.0758,-0.4794553 0.09642,-0.6411631 0.03692,-0.289506 0.0346,-0.2955081 -0.150912,-0.3914422 -0.703076,-0.3635749 -1.656522,-0.5129473 -2.223,-0.348268 -0.633827,0.1842586 -1.053201,0.6547636 -1.114697,1.2506027 -0.06409,0.6209237 0.205385,1.0596239 1.028737,1.6747949 0.32862,0.2455307 0.654346,0.5186969 0.723833,0.607036 0.42416,0.5392326 0.262562,1.1237386 -0.356789,1.2905127 -0.286005,0.077013 -0.849923,-0.012416 -1.122126,-0.177953 C 29.67187,8.356462 29.671646,8.3556848 29.671646,7.8496743 c 0,-0.477284 -0.0074,-0.5086416 -0.128114,-0.5409847 -0.274464,-0.073554 -0.437898,-0.041327 -0.467708,0.092226 -0.04492,0.2012615 -0.200947,1.1458562 -0.201149,1.2177924 -2.28e-4,0.085749 0.632873,0.3516003 1.151352,0.4834648 0.589403,0.1499029 1.338447,0.1175795 1.757342,-0.075835 l 0,0 z M 28.532856,8.5577773 c 0,-0.1996589 -0.0063,-0.2048985 -0.341637,-0.2823709 -0.132628,-0.030644 -0.197361,-0.2030655 -0.947926,-2.5248652 l -0.805577,-2.4919747 -0.409913,-0.02847 c -0.243336,-0.016901 -0.424915,-0.00533 -0.446833,0.02847 -0.02031,0.031317 -0.47478,1.1202847 -1.009943,2.4199288 l -0.973023,2.3629894 -0.251435,0.06141 c -0.222714,0.054395 -0.253422,0.081344 -0.268825,0.2359155 l -0.01739,0.1745059 0.835199,0.041751 c 0.889825,0.044483 0.95547,0.028305 0.922326,-0.2273008 C 24.807123,8.2448082 24.739233,8.2028555 24.558,8.1671749 24.423075,8.140611 24.299977,8.085767 24.284448,8.0452993 24.268919,8.0048315 24.36778,7.6927563 24.50414,7.3517988 l 0.247925,-0.6199227 0.253385,-0.019188 c 0.139362,-0.010553 0.538377,-0.00182 0.886701,0.019399 l 0.633317,0.038586 0.205779,0.6847793 c 0.113179,0.3766287 0.191799,0.7074011 0.174711,0.7350497 -0.01709,0.027649 -0.144859,0.05027 -0.283936,0.05027 -0.251031,0 -0.252867,0.00145 -0.252867,0.1992883 0,0.1096085 0.01922,0.2024148 0.04271,0.2062354 0.04331,0.00705 1.435393,0.078951 1.879003,0.097056 0.239617,0.00978 0.241993,0.00796 0.241993,-0.185575 z"
       id="path4162"
       inkscape:connector-curvature="0" />
  </g>
  <g
     inkscape:groupmode="layer"
     id="layer5"
     inkscape:label="Umass"
     style="display:inline">
    <path
       style="opacity:0;fill:none;stroke:#000000;stroke-width:0.28640947;stroke-linecap:butt;stroke-linejoin:miter;stroke-miterlimit:4;stroke-opacity:1;stroke-dasharray:none;display:inline"
       d="m 9.7354043,11.842078 0,-9.9e-5 C 19.128089,8.6577245 28.627731,8.5020075 38.185007,11.845179"
       id="path3034-6-3"
       inkscape:connector-curvature="0"
       sodipodi:nodetypes="ccc" />
    <text
       xml:space="preserve"
       style="font-size:10px;font-style:normal;font-weight:normal;line-height:125%;letter-spacing:0px;word-spacing:0px;fill:#000000;fill-opacity:1;stroke:none;font-family:Sans"
       id="text4078"
       sodipodi:linespacing="125%"
       transform="matrix(1.2352667,0,0,1.2563973,-5.5361931,-1.3002396)"><textPath
         xlink:href="#path3034-6-3"
         startOffset="50%"
         id="textPath4111"
         style="font-size:8px;font-style:normal;font-variant:normal;font-weight:bold;font-stretch:normal;text-align:center;text-anchor:middle;fill:#881c1c;fill-opacity:1;font-family:Bitstream Charter;-inkscape-font-specification:Bitstream Charter Bold">UMASS</textPath></text>
  </g>
  <g
     inkscape:groupmode="layer"
     id="layer2"
     inkscape:label="Circle">
    <path
       sodipodi:type="arc"
       style="opacity:0.95999995000000005;fill:#ffffff;stroke:#000000;stroke-width:1;stroke-miterlimit:4;stroke-opacity:1;stroke-dasharray:none;stroke-dashoffset:0;fill-opacity:1"
       id="path3769"
       sodipodi:cx="16"
       sodipodi:cy="13"
       sodipodi:rx="23"
       sodipodi:ry="22"
       d="m 39,13 a 23,22 0 1 1 -46,0 23,22 0 1 1 46,0 z"
       transform="matrix(0.44277113,0,0,0.4628971,16.950759,15.34624)" />
  </g>
  <g
     inkscape:groupmode="layer"
     id="layer7"
     inkscape:label="EMS"
     style="display:inline">
    <text
       xml:space="preserve"
       style="font-size:10px;font-style:normal;font-weight:normal;line-height:125%;letter-spacing:0px;word-spacing:0px;fill:#000000;fill-opacity:1;stroke:none;font-family:Sans"
       x="14.3"
       y="38.900002"
       id="text4115"
       sodipodi:linespacing="125%"><tspan
         sodipodi:role="line"
         id="tspan4117"
         x="14.3"
         y="38.900002"
         style="font-style:normal;font-variant:normal;font-weight:bold;font-stretch:normal;fill:#881c1c;fill-opacity:1;font-family:Bitstream Charter;-inkscape-font-specification:Bitstream Charter Bold">EMS</tspan></text>
  </g>
  <g
     inkscape:groupmode="layer"
     id="layer11"
     inkscape:label="Logo">
    <path
       style="fill:#0700bb;fill-opacity:1"
       d="m 21.648739,27.780238 c 0,-1.317668 -0.0085,-2.395761 -0.01875,-2.395761 -0.01031,0 -0.882487,0.534765 -1.938165,1.188364 -1.055677,0.6536 -1.933695,1.171713 -1.951148,1.151361 -0.04635,-0.05405 -2.21089,-3.984341 -2.237972,-4.06364 -0.01658,-0.04855 0.510235,-0.38211 1.906006,-1.206823 1.060904,-0.626852 1.929465,-1.150479 1.930132,-1.163616 6.83e-4,-0.01314 -0.858819,-0.55577 -1.90997,-1.205854 -1.051151,-0.650084 -1.919551,-1.196156 -1.929778,-1.213494 -0.01655,-0.02807 2.158441,-4.01237 2.242701,-4.108337 0.01875,-0.02135 0.898059,0.496761 1.954028,1.151361 1.055968,0.6546 1.927361,1.190181 1.936429,1.190181 0.009,0 0.01648,-1.057159 0.01648,-2.349243 l 0,-2.349241 2.264283,0 2.264283,0 0,2.349241 c 0,1.292084 0.0085,2.349243 0.01878,2.349243 0.01033,0 0.902059,-0.535204 1.981625,-1.189344 1.079568,-0.654139 1.977828,-1.172251 1.996135,-1.151361 0.08392,0.09576 2.25834,4.079629 2.2419,4.1075 -0.01023,0.01734 -0.878626,0.56341 -1.929778,1.213494 -1.05115,0.650084 -1.910638,1.192718 -1.909969,1.205854 6.81e-4,0.01314 0.869227,0.536764 1.930132,1.163616 1.395771,0.824713 1.922586,1.158276 1.906006,1.206823 -0.02708,0.0793 -2.191613,4.009588 -2.237972,4.06364 -0.01745,0.02035 -0.895471,-0.497761 -1.951151,-1.151361 -1.055677,-0.653599 -1.927849,-1.188364 -1.938161,-1.188364 -0.01031,0 -0.01875,1.078093 -0.01875,2.395761 l 0,2.395762 -2.308682,0 -2.308679,0 0,-2.395762 z m 4.43977,-0.214316 c 0,-1.965251 0.01142,-2.465926 0.05583,-2.448068 0.03071,0.01234 0.92197,0.558867 1.98058,1.214487 1.05861,0.655622 1.94046,1.192039 1.959666,1.192039 0.0394,0 2.13158,-3.774029 2.129402,-3.841172 -7.73e-4,-0.02378 -0.880207,-0.56394 -1.954298,-1.200376 -1.074094,-0.636437 -1.960204,-1.17025 -1.969136,-1.186252 -0.0089,-0.016 0.865508,-0.574625 1.943199,-1.241388 1.337631,-0.827585 1.957713,-1.235787 1.954003,-1.286325 -0.0071,-0.09811 -2.056972,-3.804791 -2.10402,-3.804791 -0.02008,0 -0.922223,0.536292 -2.004769,1.191758 -1.082544,0.655468 -1.993236,1.201988 -2.023759,1.214489 -0.04396,0.01799 -0.0555,-0.480961 -0.0555,-2.401271 l 0,-2.423997 -2.086692,0 -2.086692,0 0,2.423997 c 0,1.920379 -0.01153,2.41925 -0.0555,2.40114 -0.03052,-0.01257 -0.921141,-0.559091 -1.979148,-1.214487 -1.058008,-0.655397 -1.940174,-1.191629 -1.960371,-1.191629 -0.04719,0 -2.09701,3.706399 -2.104234,3.804791 -0.0037,0.05054 0.616372,0.45874 1.954003,1.286325 1.07769,0.666763 1.95213,1.225387 1.943199,1.241388 -0.0089,0.016 -0.895043,0.549815 -1.969135,1.186252 -1.074092,0.636436 -1.953527,1.176607 -1.954298,1.200376 -0.0021,0.06714 2.09,3.841172 2.129401,3.841172 0.01921,0 0.901055,-0.536417 1.959666,-1.192039 1.058611,-0.65562 1.949872,-1.202139 1.98058,-1.214487 0.04441,-0.01786 0.05583,0.482817 0.05583,2.448068 l 0,2.470519 2.13109,0 2.131091,0 0,-2.470519 z m -4.08459,-0.2974 c 0,-1.394426 -0.01083,-2.53532 -0.02406,-2.53532 -0.01323,0 -0.917283,0.553045 -2.008996,1.228991 -1.091713,0.675945 -2.009874,1.235925 -2.040359,1.2444 -0.05729,0.01593 -1.973784,-3.397217 -1.939849,-3.454746 0.01008,-0.01711 0.927663,-0.572326 2.039056,-1.233826 1.111392,-0.661501 2.020604,-1.213485 2.02047,-1.226631 -1.32e-4,-0.01315 -0.909398,-0.586251 -2.020583,-1.273569 -1.111185,-0.687317 -2.028879,-1.264147 -2.039317,-1.281844 -0.01644,-0.02787 1.797844,-3.362344 1.882025,-3.458978 0.01724,-0.01979 0.944445,0.529728 2.060463,1.221142 1.116017,0.691412 2.038579,1.257115 2.050139,1.257115 0.01156,0 0.02101,-1.119961 0.02101,-2.488803 l 0,-2.488801 1.886903,0 1.886901,0 0,2.488801 c 0,1.428559 0.01688,2.488803 0.03964,2.488803 0.0218,0 0.974116,-0.565924 2.116266,-1.257609 1.142148,-0.691685 2.090949,-1.241197 2.108444,-1.221141 0.08436,0.09672 1.899004,3.431486 1.882497,3.459471 -0.01044,0.01769 -0.928132,0.594527 -2.039317,1.281844 -1.111187,0.687318 -2.020448,1.260423 -2.020582,1.273569 -1.42e-4,0.01315 0.909077,0.56513 2.020469,1.226631 1.111392,0.6615 2.028967,1.216722 2.039057,1.233826 0.03393,0.05754 -1.882557,3.470676 -1.93985,3.454746 -0.03048,-0.0084 -0.948647,-0.568455 -2.040359,-1.2444 -1.091713,-0.675946 -1.995762,-1.228991 -2.008997,-1.228991 -0.01323,0 -0.02406,1.140894 -0.02406,2.53532 l 0,2.535322 -1.953499,0 -1.953498,0 0,-2.535322 z m 2.075816,1.151362 c 0.01006,-0.03198 -0.01336,-0.05815 -0.05201,-0.05815 -0.08833,0 -0.09005,0.01847 0.03569,-0.382808 0.09512,-0.303582 0.108438,-0.446709 0.129878,-1.396569 0.01313,-0.582076 0.01163,-1.058321 -0.0033,-1.058321 -0.07008,0 -0.320837,0.219189 -0.388921,0.339957 -0.06562,0.116402 -0.0752,0.2632 -0.06991,1.072077 0.0087,1.329473 0.04769,1.585696 0.236939,1.556416 0.05138,-0.0079 0.101638,-0.04062 0.11169,-0.07261 z m 0.287227,-0.372157 c 0.220728,-0.263774 0.285406,-0.743724 0.127723,-0.947761 l -0.08431,-0.109085 -0.0329,0.27838 c -0.01809,0.153107 -0.06738,0.409216 -0.109525,0.569127 -0.0802,0.304297 -0.04419,0.380449 0.099,0.209339 z M 23.60558,25.955358 c 0.06609,-0.209842 0.22642,-0.399993 0.45623,-0.541107 0.65799,-0.404039 0.955082,-1.325045 0.636102,-1.97197 -0.06623,-0.134325 -0.137132,-0.244228 -0.157556,-0.244228 -0.02042,0 -0.04947,0.15177 -0.06454,0.337267 -0.05167,0.635899 -0.174121,0.855298 -0.754666,1.352211 -0.505766,0.432909 -0.635358,1.05679 -0.331575,1.596271 l 0.101303,0.179901 0.033,-0.276888 c 0.01815,-0.152289 0.05492,-0.346444 0.08169,-0.431457 z m 0.532891,-1.704501 c 0.110583,-0.190526 0.136977,-0.483554 0.121079,-1.344184 l -0.01354,-0.733317 -0.168227,0.119843 c -0.09252,0.06591 -0.227382,0.205411 -0.299685,0.309991 -0.128484,0.185845 -0.131452,0.202879 -0.131192,0.753032 1.32e-4,0.309588 0.01305,0.734932 0.02868,0.94521 l 0.0284,0.382325 0.176754,-0.146683 c 0.09721,-0.08067 0.213198,-0.209472 0.25774,-0.286217 z M 23.666565,22.50369 c 0.07033,-0.10633 0.31629,-0.324737 0.583264,-0.517915 0.499643,-0.361534 0.712431,-0.579126 0.870984,-0.89064 0.08552,-0.168026 0.101671,-0.270092 0.101545,-0.64174 -1.35e-4,-0.407566 -0.01133,-0.464393 -0.14384,-0.73067 -0.146142,-0.293668 -0.387556,-0.618399 -0.459733,-0.618399 -0.02189,0 -0.0398,0.243542 -0.0398,0.541208 0,0.297664 -0.02375,0.62427 -0.05278,0.725792 -0.0713,0.249377 -0.359572,0.573843 -0.884058,0.995087 -0.503418,0.404322 -0.617082,0.564821 -0.617082,0.87135 0,0.255583 0.134057,0.649881 0.274029,0.805996 l 0.10025,0.111811 0.07281,-0.234007 c 0.04004,-0.128705 0.127529,-0.316747 0.194412,-0.417873 z m 0.429725,-1.727336 0.205468,-0.214128 0.0271,-0.880139 c 0.01491,-0.484078 0.03966,-1.443201 0.05504,-2.13139 l 0.02794,-1.251249 -0.127308,0.147937 c -0.08541,0.09926 -0.229578,0.184011 -0.438093,0.257563 l -0.310783,0.109625 0.0097,0.761089 c 0.0053,0.418598 0.02261,1.404522 0.03838,2.190941 l 0.02868,1.429852 0.139207,-0.102987 c 0.07656,-0.05664 0.231668,-0.199344 0.344675,-0.317114 z m -0.760439,-2.021427 0,-0.488957 -0.199789,-0.39691 c -0.365432,-0.72598 -0.271436,-0.980546 0.455792,-1.2344 0.508733,-0.177586 0.703853,-0.33948 0.655223,-0.543653 -0.04375,-0.183656 -0.146131,-0.283075 -0.35108,-0.3409 -0.355158,-0.100204 -0.879111,0.06496 -1.145215,0.360993 -0.415052,0.461741 -0.441396,1.45859 -0.05989,2.265894 0.152584,0.322878 0.534255,0.866889 0.608195,0.866889 0.02022,0 0.03676,-0.220031 0.03676,-0.488956 z m 0.421965,-2.691744 c -0.08051,-0.06168 -0.08003,-0.065 0.01371,-0.09618 0.0534,-0.01775 0.140788,-0.01775 0.194191,0 0.09375,0.03118 0.09422,0.03449 0.01371,0.09618 -0.04586,0.03513 -0.09572,0.06389 -0.110808,0.06389 -0.01508,0 -0.06494,-0.02875 -0.110808,-0.06389 z m 0.682175,-1.113795 c 0.0085,-0.533775 -0.120012,-0.727558 -0.482573,-0.727558 -0.365346,0 -0.488647,0.189795 -0.487767,0.750818 8.63e-4,0.558419 0.01582,0.59597 0.237659,0.597204 0.251704,0.0013 0.547633,0.149918 0.616343,0.309322 0.05207,0.120779 0.05726,0.10707 0.08303,-0.218671 0.01513,-0.191142 0.0301,-0.511143 0.0333,-0.711115 z"
       id="path4305"
       inkscape:connector-curvature="0" />
  </g>
  <g
     inkscape:groupmode="layer"
     id="layer3"
     inkscape:label="EKG">
    <path
       style="fill:#881c1c;fill-opacity:1;stroke:#881c1c;stroke-width:0.146;stroke-miterlimit:4;stroke-opacity:1;stroke-dasharray:none"
       d="m 33.250331,21.788007 c -0.227213,0.13388 -0.45792,0.331429 -0.512688,0.438997 -0.08827,0.173361 -0.19696,0.945836 -0.319746,2.272292 -0.0219,0.236235 -0.06208,0.385673 -0.08937,0.332081 -0.04234,-0.08314 -0.194118,-4.668511 -0.191637,-5.788953 0.0017,-0.756011 -0.0632,-0.235482 -0.145653,1.168987 -0.09056,1.542146 -0.185359,1.981268 -0.453558,2.100921 -0.185428,0.08273 -0.306307,-0.08964 -0.470181,-0.670419 -0.149947,-0.531414 -0.352721,-0.948304 -0.461253,-0.948304 -0.04259,0 -0.137812,0.173527 -0.211548,0.385614 -0.270646,0.778398 -0.355873,0.832578 -1.301208,0.82716 -0.930345,-0.0053 -1.283331,-0.145662 -1.438231,-0.571782 -0.375253,-1.032247 -0.814762,-1.271773 -1.157222,-0.63067 -0.236331,0.442419 -0.657387,0.820464 -1.167499,1.048232 -0.223666,0.09986 -0.462324,0.273756 -0.53036,0.386423 -0.134773,0.223192 -0.23075,0.87783 -0.296861,2.024792 -0.03976,0.689846 -0.0931,0.87855 -0.178722,0.632289 -0.02937,-0.08436 -0.218342,-5.365289 -0.219785,-6.140673 -8.51e-4,-0.534085 -0.06054,0.0077 -0.157228,1.429798 -0.114688,1.687227 -0.19933,2.118735 -0.436349,2.224479 -0.220017,0.09815 -0.424361,-0.178804 -0.631816,-0.856327 -0.231574,-0.756293 -0.368932,-0.90493 -0.508205,-0.549956 -0.0571,0.145599 -0.195493,0.437974 -0.307476,0.649724 l -0.203606,0.385 -0.854297,-0.08134 c -0.469856,-0.04473 -0.924685,-0.1283 -1.010726,-0.185705 -0.08604,-0.05741 -0.268534,-0.293369 -0.405539,-0.52436 -0.542082,-0.913973 -0.869942,-1.036152 -1.187112,-0.442384 -0.238916,0.447254 -0.658478,0.82095 -1.186348,1.056645 -0.573707,0.256161 -0.670312,0.451093 -0.762167,1.537907 -0.129191,1.528594 -0.138946,1.608848 -0.188768,1.554108 -0.02679,-0.02946 -0.08561,-1.157126 -0.130635,-2.505951 -0.08003,-2.395975 -0.135658,-2.803249 -0.206518,-1.511678 -0.01932,0.351713 -0.08608,0.824929 -0.148392,1.051594 -0.09751,0.3547 -0.146443,0.416966 -0.351175,0.446932 -0.285243,0.04175 -0.380223,-0.08283 -0.569816,-0.747375 -0.07926,-0.277791 -0.201203,-0.5968 -0.270998,-0.708909 -0.124796,-0.20045 -0.129544,-0.196396 -0.28605,0.244303 -0.156731,0.441316 -0.410065,0.798242 -0.410065,0.577743 0,-0.06 0.03915,-0.148923 0.08697,-0.19761 0.04783,-0.04868 0.148684,-0.275316 0.224113,-0.503622 0.239397,-0.724643 0.459362,-0.542705 0.80298,0.664163 0.122725,0.431045 0.154068,0.470449 0.374213,0.470449 0.203461,0 0.251119,-0.04665 0.311014,-0.304408 0.113838,-0.489915 0.187317,-1.502629 0.232588,-3.205751 0.02327,-0.875588 0.06269,-1.55232 0.08765,-1.50385 0.02491,0.04847 0.09292,1.457965 0.151088,3.132212 0.05814,1.674246 0.113495,3.093897 0.12295,3.154778 0.0094,0.06088 0.0504,-0.169061 0.0911,-0.510985 0.09493,-0.798264 0.244583,-1.041512 0.813018,-1.321514 0.57047,-0.281002 0.776464,-0.468055 1.106798,-1.005015 0.409223,-0.665207 0.79728,-0.575587 1.26243,0.291553 0.119883,0.223475 0.290524,0.473932 0.379219,0.55657 0.179271,0.167037 1.627008,0.347194 1.88066,0.23403 0.10009,-0.04465 0.228071,-0.273189 0.349595,-0.624235 0.272964,-0.788576 0.515427,-0.72261 0.782087,0.212789 0.184931,0.648695 0.314491,0.893826 0.472424,0.893826 0.232709,0 0.306814,-0.454109 0.471702,-2.890521 0.152068,-2.246999 0.178705,-2.522196 0.23361,-2.413564 0.0128,0.02537 0.0699,1.341241 0.126908,2.924165 0.05693,1.582924 0.120957,3.052386 0.142175,3.265473 l 0.03856,0.387428 0.05186,-0.497955 c 0.08158,-0.783152 0.218668,-1.018811 0.75133,-1.291455 0.522176,-0.267276 1.107682,-0.756793 1.107682,-0.926084 0,-0.17896 0.390066,-0.549116 0.579126,-0.549564 0.26211,-6.16e-4 0.498184,0.263239 0.701035,0.783546 0.100203,0.257005 0.272604,0.534439 0.383119,0.616519 0.242008,0.179743 1.832134,0.20858 2.013011,0.03651 0.06517,-0.06201 0.1921,-0.335969 0.282058,-0.608817 0.265476,-0.805234 0.499249,-0.648335 0.868903,0.583179 0.194951,0.649474 0.328153,0.731538 0.512224,0.315582 0.09333,-0.210907 0.139771,-0.672228 0.225649,-2.241554 0.20584,-3.761469 0.249007,-3.695567 0.355168,0.542297 0.04388,1.750349 0.09967,3.182452 0.124057,3.182452 0.02439,0 0.0638,-0.230409 0.08754,-0.512022 0.05581,-0.661147 0.235971,-0.975382 0.69548,-1.212833 0.490525,-0.253475 0.684034,-0.255297 0.984362,-0.692207 -0.09575,0.139292 0.0813,0.282478 -0.07852,0.247484 -0.06564,-0.01437 0.12555,-0.14374 0.12555,-0.14374 -0.09597,0.154229 -0.612623,0.597014 -0.954678,0.751066 z"
       id="path3897"
       inkscape:connector-curvature="0"
       sodipodi:nodetypes="cccccccsscccsccsccccscscccscsscccsscscsccssssccccssccccssscccccssccsccssscscscssc" />
  </g>
  <g
     inkscape:groupmode="layer"
     id="layer4"
     inkscape:label="Circle outline"
     style="display:inline">
    <path
       sodipodi:type="arc"
       style="opacity:0.95999995;fill:none;stroke:#000000;stroke-width:1;stroke-miterlimit:4;stroke-opacity:1;stroke-dasharray:none;stroke-dashoffset:0"
       id="path3769-9"
       sodipodi:cx="16"
       sodipodi:cy="13"
       sodipodi:rx="23"
       sodipodi:ry="22"
       d="m 39,13 a 23,22 0 1 1 -46,0 23,22 0 1 1 46,0 z"
       transform="matrix(0.44277113,0,0,0.4628971,16.922289,15.367592)" />
  </g>
</svg>
